<svg width="176" height="26" viewBox="0 0 176 26" fill="none" xmlns="http://www.w3.org/2000/svg">
<path d="M3.2252 25.21C2.54853 25.21 2.0002 25.0117 1.5802 24.615C1.18353 24.195 0.985195 23.635 0.985195 22.935V2.46C0.985195 1.78333 1.17186 1.25833 1.5452 0.885C1.94186 0.511666 2.47853 0.324998 3.1552 0.324998H11.7652C14.4019 0.324998 16.4552 0.989999 17.9252 2.32C19.3952 3.62667 20.1302 5.47 20.1302 7.85C20.1302 10.23 19.3952 12.085 17.9252 13.415C16.4552 14.745 14.4019 15.41 11.7652 15.41H5.5002V22.935C5.5002 23.635 5.2902 24.195 4.8702 24.615C4.47353 25.0117 3.9252 25.21 3.2252 25.21ZM11.2052 11.945C14.3085 11.945 15.8602 10.5917 15.8602 7.885C15.8602 5.17833 14.3085 3.825 11.2052 3.825H5.5002V11.945H11.2052ZM32.9189 7.535C33.5255 7.48833 34.0039 7.61667 34.3539 7.92C34.7039 8.22333 34.8789 8.67833 34.8789 9.285C34.8789 9.915 34.7272 10.3817 34.4239 10.685C34.1205 10.9883 33.5722 11.1867 32.7789 11.28L31.7289 11.385C30.3522 11.525 29.3372 11.9917 28.6839 12.785C28.0539 13.5783 27.7389 14.57 27.7389 15.76V23.11C27.7389 23.7867 27.5289 24.3117 27.1089 24.685C26.6889 25.035 26.1639 25.21 25.5339 25.21C24.9039 25.21 24.3789 25.035 23.9589 24.685C23.5622 24.3117 23.3639 23.7867 23.3639 23.11V9.565C23.3639 8.91167 23.5622 8.41 23.9589 8.06C24.3789 7.71 24.8922 7.535 25.4989 7.535C26.1055 7.535 26.5955 7.71 26.9689 8.06C27.3422 8.38667 27.5289 8.865 27.5289 9.495V10.895C27.9722 9.86833 28.6255 9.075 29.4889 8.515C30.3755 7.955 31.3555 7.64 32.4289 7.57L32.9189 7.535ZM49.9655 20.31C50.3622 20.31 50.6772 20.4617 50.9105 20.765C51.1672 21.0683 51.2955 21.4767 51.2955 21.99C51.2955 22.7133 50.8638 23.32 50.0005 23.81C49.2072 24.2533 48.3088 24.615 47.3055 24.895C46.3022 25.1517 45.3455 25.28 44.4355 25.28C41.6822 25.28 39.5005 24.4867 37.8905 22.9C36.2805 21.3133 35.4755 19.1433 35.4755 16.39C35.4755 14.64 35.8255 13.0883 36.5255 11.735C37.2255 10.3817 38.2055 9.33167 39.4655 8.585C40.7488 7.83833 42.1955 7.465 43.8055 7.465C45.3455 7.465 46.6872 7.80333 47.8305 8.48C48.9738 9.15667 49.8605 10.1133 50.4905 11.35C51.1205 12.5867 51.4355 14.045 51.4355 15.725C51.4355 16.7283 50.9922 17.23 50.1055 17.23H39.7805C39.9205 18.84 40.3755 20.03 41.1455 20.8C41.9155 21.5467 43.0355 21.92 44.5055 21.92C45.2522 21.92 45.9055 21.8267 46.4655 21.64C47.0488 21.4533 47.7022 21.1967 48.4255 20.87C49.1255 20.4967 49.6388 20.31 49.9655 20.31ZM43.9105 10.545C42.7205 10.545 41.7638 10.9183 41.0405 11.665C40.3405 12.4117 39.9205 13.485 39.7805 14.885H47.6905C47.6438 13.4617 47.2938 12.3883 46.6405 11.665C45.9872 10.9183 45.0772 10.545 43.9105 10.545ZM61.2093 25.28C58.6659 25.28 56.6126 24.7783 55.0493 23.775C54.3026 23.3317 53.9293 22.7017 53.9293 21.885C53.9293 21.4183 54.0576 21.045 54.3143 20.765C54.5709 20.4617 54.8859 20.31 55.2593 20.31C55.6559 20.31 56.2043 20.4967 56.9043 20.87C57.6509 21.22 58.3276 21.4883 58.9343 21.675C59.5643 21.8617 60.3576 21.955 61.3143 21.955C62.2943 21.955 63.0526 21.7917 63.5893 21.465C64.1493 21.1383 64.4293 20.6833 64.4293 20.1C64.4293 19.7033 64.3126 19.3883 64.0793 19.155C63.8693 18.9217 63.4726 18.7117 62.8893 18.525C62.3293 18.315 61.4659 18.0817 60.2993 17.825C58.2226 17.405 56.7293 16.81 55.8193 16.04C54.9326 15.27 54.4893 14.2083 54.4893 12.855C54.4893 11.8283 54.7926 10.9067 55.3993 10.09C56.0059 9.25 56.8343 8.60833 57.8843 8.165C58.9576 7.69833 60.1709 7.465 61.5243 7.465C62.5043 7.465 63.4493 7.59333 64.3593 7.85C65.2693 8.08333 66.0859 8.43333 66.8093 8.9C67.5559 9.36667 67.9293 9.985 67.9293 10.755C67.9293 11.2217 67.8009 11.6183 67.5443 11.945C67.2876 12.2483 66.9726 12.4 66.5993 12.4C66.3426 12.4 66.0859 12.3533 65.8293 12.26C65.5959 12.1433 65.2926 11.98 64.9193 11.77C64.2426 11.42 63.6593 11.1633 63.1693 11C62.6793 10.8133 62.0726 10.72 61.3493 10.72C60.4859 10.72 59.7976 10.895 59.2843 11.245C58.7943 11.595 58.5493 12.0733 58.5493 12.68C58.5493 13.2633 58.8059 13.7067 59.3193 14.01C59.8326 14.3133 60.8243 14.6167 62.2943 14.92C63.8576 15.2467 65.0826 15.62 65.9693 16.04C66.8559 16.46 67.4859 16.985 67.8593 17.615C68.2559 18.245 68.4543 19.05 68.4543 20.03C68.4543 21.6167 67.7893 22.8883 66.4593 23.845C65.1526 24.8017 63.4026 25.28 61.2093 25.28ZM80.7207 21.955C81.8873 22.025 82.4707 22.55 82.4707 23.53C82.4707 24.09 82.2373 24.5217 81.7707 24.825C81.3273 25.105 80.6857 25.2217 79.8457 25.175L78.9007 25.105C74.9807 24.825 73.0207 22.725 73.0207 18.805V11.175H71.2707C70.6407 11.175 70.1507 11.035 69.8007 10.755C69.474 10.475 69.3107 10.0667 69.3107 9.53C69.3107 8.99333 69.474 8.585 69.8007 8.305C70.1507 8.025 70.6407 7.885 71.2707 7.885H73.0207V4.665C73.0207 4.035 73.219 3.53333 73.6157 3.16C74.0123 2.78667 74.549 2.6 75.2257 2.6C75.879 2.6 76.404 2.78667 76.8007 3.16C77.1973 3.53333 77.3957 4.035 77.3957 4.665V7.885H80.3707C81.0007 7.885 81.479 8.025 81.8057 8.305C82.1557 8.585 82.3307 8.99333 82.3307 9.53C82.3307 10.0667 82.1557 10.475 81.8057 10.755C81.479 11.035 81.0007 11.175 80.3707 11.175H77.3957V19.12C77.3957 20.8467 78.189 21.7683 79.7757 21.885L80.7207 21.955ZM92.1706 7.465C94.5506 7.465 96.3123 8.06 97.4556 9.25C98.6223 10.4167 99.2056 12.2017 99.2056 14.605V23.145C99.2056 23.775 99.0189 24.2767 98.6456 24.65C98.2723 25 97.7589 25.175 97.1056 25.175C96.4989 25.175 95.9973 24.9883 95.6006 24.615C95.2273 24.2417 95.0406 23.7517 95.0406 23.145V22.375C94.6439 23.285 94.0139 23.9967 93.1506 24.51C92.3106 25.0233 91.3306 25.28 90.2106 25.28C89.0673 25.28 88.0289 25.0467 87.0956 24.58C86.1623 24.1133 85.4273 23.4717 84.8906 22.655C84.3539 21.8383 84.0856 20.9283 84.0856 19.925C84.0856 18.665 84.4006 17.6733 85.0306 16.95C85.6839 16.2267 86.7339 15.7017 88.1806 15.375C89.6273 15.0483 91.6223 14.885 94.1656 14.885H95.0406V14.08C95.0406 12.9367 94.7956 12.1083 94.3056 11.595C93.8156 11.0583 93.0223 10.79 91.9256 10.79C91.2489 10.79 90.5606 10.895 89.8606 11.105C89.1606 11.2917 88.3323 11.5717 87.3756 11.945C86.7689 12.2483 86.3256 12.4 86.0456 12.4C85.6256 12.4 85.2756 12.2483 84.9956 11.945C84.7389 11.6417 84.6106 11.245 84.6106 10.755C84.6106 10.3583 84.7039 10.02 84.8906 9.74C85.1006 9.43667 85.4389 9.15667 85.9056 8.9C86.7223 8.45667 87.6906 8.10667 88.8106 7.85C89.9539 7.59333 91.0739 7.465 92.1706 7.465ZM91.0856 22.13C92.2523 22.13 93.1973 21.745 93.9206 20.975C94.6673 20.1817 95.0406 19.1667 95.0406 17.93V17.195H94.4106C92.8473 17.195 91.6339 17.265 90.7706 17.405C89.9073 17.545 89.2889 17.79 88.9156 18.14C88.5423 18.49 88.3556 18.9683 88.3556 19.575C88.3556 20.3217 88.6123 20.94 89.1256 21.43C89.6623 21.8967 90.3156 22.13 91.0856 22.13Z" fill="#051736"/>
<path d="M115.062 25.315C112.682 25.315 110.594 24.8017 108.797 23.775C107.024 22.7483 105.659 21.2783 104.702 19.365C103.745 17.4517 103.267 15.2117 103.267 12.645C103.267 10.0783 103.745 7.85 104.702 5.96C105.659 4.04667 107.024 2.57667 108.797 1.55C110.594 0.523332 112.682 0.00999838 115.062 0.00999838C116.602 0.00999838 118.049 0.243332 119.402 0.71C120.755 1.15333 121.957 1.80667 123.007 2.67C123.31 2.90333 123.52 3.14833 123.637 3.405C123.754 3.66167 123.812 3.97667 123.812 4.35C123.812 4.86333 123.672 5.295 123.392 5.645C123.112 5.995 122.774 6.17 122.377 6.17C121.91 6.17 121.432 6.00667 120.942 5.68C119.939 4.93333 119.005 4.42 118.142 4.14C117.279 3.83667 116.322 3.685 115.272 3.685C112.845 3.685 111.002 4.44333 109.742 5.96C108.505 7.47667 107.887 9.705 107.887 12.645C107.887 15.6083 108.505 17.8483 109.742 19.365C111.002 20.8817 112.845 21.64 115.272 21.64C116.275 21.64 117.197 21.4883 118.037 21.185C118.9 20.8817 119.869 20.3683 120.942 19.645C121.175 19.505 121.409 19.3883 121.642 19.295C121.875 19.2017 122.12 19.155 122.377 19.155C122.774 19.155 123.112 19.33 123.392 19.68C123.672 20.03 123.812 20.4617 123.812 20.975C123.812 21.325 123.754 21.64 123.637 21.92C123.52 22.1767 123.31 22.4217 123.007 22.655C121.957 23.5183 120.755 24.1833 119.402 24.65C118.049 25.0933 116.602 25.315 115.062 25.315ZM140.541 7.535C141.218 7.535 141.754 7.72167 142.151 8.095C142.548 8.46833 142.746 8.97 142.746 9.6V23.18C142.746 23.7867 142.536 24.2767 142.116 24.65C141.719 25.0233 141.194 25.21 140.541 25.21C139.911 25.21 139.409 25.035 139.036 24.685C138.663 24.335 138.476 23.8567 138.476 23.25V22.375C137.939 23.3083 137.216 24.0317 136.306 24.545C135.396 25.035 134.369 25.28 133.226 25.28C129.026 25.28 126.926 22.9233 126.926 18.21V9.6C126.926 8.97 127.124 8.46833 127.521 8.095C127.918 7.72167 128.443 7.535 129.096 7.535C129.773 7.535 130.309 7.72167 130.706 8.095C131.103 8.46833 131.301 8.97 131.301 9.6V18.245C131.301 19.4583 131.546 20.3567 132.036 20.94C132.526 21.5233 133.296 21.815 134.346 21.815C135.559 21.815 136.528 21.4183 137.251 20.625C137.998 19.8083 138.371 18.735 138.371 17.405V9.6C138.371 8.97 138.569 8.46833 138.966 8.095C139.363 7.72167 139.888 7.535 140.541 7.535ZM156.854 7.535C157.461 7.48833 157.939 7.61667 158.289 7.92C158.639 8.22333 158.814 8.67833 158.814 9.285C158.814 9.915 158.663 10.3817 158.359 10.685C158.056 10.9883 157.508 11.1867 156.714 11.28L155.664 11.385C154.288 11.525 153.273 11.9917 152.619 12.785C151.989 13.5783 151.674 14.57 151.674 15.76V23.11C151.674 23.7867 151.464 24.3117 151.044 24.685C150.624 25.035 150.099 25.21 149.469 25.21C148.839 25.21 148.314 25.035 147.894 24.685C147.498 24.3117 147.299 23.7867 147.299 23.11V9.565C147.299 8.91167 147.498 8.41 147.894 8.06C148.314 7.71 148.828 7.535 149.434 7.535C150.041 7.535 150.531 7.71 150.904 8.06C151.278 8.38667 151.464 8.865 151.464 9.495V10.895C151.908 9.86833 152.561 9.075 153.424 8.515C154.311 7.955 155.291 7.64 156.364 7.57L156.854 7.535ZM173.901 20.31C174.298 20.31 174.613 20.4617 174.846 20.765C175.103 21.0683 175.231 21.4767 175.231 21.99C175.231 22.7133 174.799 23.32 173.936 23.81C173.143 24.2533 172.244 24.615 171.241 24.895C170.238 25.1517 169.281 25.28 168.371 25.28C165.618 25.28 163.436 24.4867 161.826 22.9C160.216 21.3133 159.411 19.1433 159.411 16.39C159.411 14.64 159.761 13.0883 160.461 11.735C161.161 10.3817 162.141 9.33167 163.401 8.585C164.684 7.83833 166.131 7.465 167.741 7.465C169.281 7.465 170.623 7.80333 171.766 8.48C172.909 9.15667 173.796 10.1133 174.426 11.35C175.056 12.5867 175.371 14.045 175.371 15.725C175.371 16.7283 174.928 17.23 174.041 17.23H163.716C163.856 18.84 164.311 20.03 165.081 20.8C165.851 21.5467 166.971 21.92 168.441 21.92C169.188 21.92 169.841 21.8267 170.401 21.64C170.984 21.4533 171.638 21.1967 172.361 20.87C173.061 20.4967 173.574 20.31 173.901 20.31ZM167.846 10.545C166.656 10.545 165.699 10.9183 164.976 11.665C164.276 12.4117 163.856 13.485 163.716 14.885H171.626C171.579 13.4617 171.229 12.3883 170.576 11.665C169.923 10.9183 169.013 10.545 167.846 10.545Z" fill="#E2336F"/>
</svg>
